<?xml version="1.0" encoding="UTF-8"?>
<svg id="Capa_2" data-name="Capa 2" xmlns="http://www.w3.org/2000/svg" viewBox="0 0 4928.84 4233.72">
  <defs>
    <style>
      .cls-1, .cls-2, .cls-3, .cls-4, .cls-5 {
        stroke-miterlimit: 10;
      }

      .cls-1, .cls-2, .cls-4 {
        stroke-width: 100px;
      }

      .cls-1, .cls-3 {
        stroke: #4b9837;
      }

      .cls-1, .cls-4 {
        fill: none;
      }

      .cls-2 {
        fill: #25346a;
      }

      .cls-2, .cls-4, .cls-5 {
        stroke: #27326c;
      }

      .cls-3, .cls-6 {
        fill: #4b9837;
      }

      .cls-3, .cls-5 {
        stroke-width: 25px;
      }

      .cls-6, .cls-7 {
        stroke-width: 0px;
      }

      .cls-5, .cls-7 {
        fill: #27326c;
      }
    </style>
  </defs>
  <g id="Capa_1-2" data-name="Capa 1">
    <g>
      <path class="cls-7" d="M3162.2,1973.35c0,14.14,1.34,25.61-12.8,25.61h-1299.24c-14.14,0-25.61-11.46-25.61-25.61v-282.49c0-14.14,11.46-25.61,25.61-25.61l252.1,88.48c73.49,25.79,152.01,33.97,229.23,23.86l259.29-33.92c97.22-12.72,195.78,9.69,277.95,63.18l290.54,137.95"/>
      <rect class="cls-4" x="2330.97" y="1997.08" width="331.74" height="348.3"/>
      <path class="cls-4" d="M2238.29,2343.75h513.26c3.4,0,6.66,1.35,9.06,3.75l152.51,152.51c8.07,8.07,2.36,21.88-9.06,21.88h-814.93c-11.35,0-17.1-13.66-9.16-21.78l149.15-152.51c2.41-2.47,5.71-3.86,9.16-3.86Z"/>
      <path class="cls-4" d="M3146.46,1996.02h-1299.24c-14.14,0-25.61-11.46-25.61-25.61v-817.78c0-14.14,11.46-25.61,25.61-25.61h1299.24c14.14,0,25.61,11.46,25.61,25.61v817.78c0,14.14-11.46,25.61-25.61,25.61Z"/>
      <g>
        <path class="cls-1" d="M4079.86,2696.54s-238.23,470.58-823.28,684.05c-552.12,201.45-1435.78,167.67-1979.51-502.45"/>
        <path class="cls-6" d="M847.26,2282.56s111.58,163.34,318.38,197.4c254.79,41.96,650.61,225.29,692.56,666.18,0,0-470.94-294.12-505.47-275.34-34.54,18.77,310.82,394.24,411.28,438.05,100.47,43.8-621.64,156.45-916.76-1026.28Z"/>
      </g>
      <g>
        <path class="cls-4" d="M907.44,1127.03s311.09-623.14,989.19-869.89c639.92-232.85,1631.66-120.27,2182.71,833.59"/>
        <path class="cls-4" d="M1539.36,845.96c290.89-242.1,657.68-370.22,1036.69-352.92,372.17,16.99,724.57,174.92,990.19,435.1,145.27,142.3,263.6,310.26,357.38,490.3"/>
        <circle class="cls-2" cx="907.44" cy="1127.03" r="60.18"/>
        <circle class="cls-2" cx="3923.62" cy="1418.44" r="60.18"/>
      </g>
    </g>
    <g>
      <path class="cls-3" d="M12.5,3859.28h60.2v361.94H12.5v-361.94Z"/>
      <path class="cls-3" d="M751.81,3859.28v361.94h-84.48l-458.56-305.54v305.54h-60.2v-361.94h84.48l458.31,305.54v-305.54h60.45Z"/>
      <path class="cls-3" d="M1430.93,3859.28v60.45h-271.39v301.49h-60.45v-301.49h-271.39v-60.45h603.24Z"/>
      <path class="cls-3" d="M2052.38,4058.84c38.45,35.92,57.67,80.01,57.67,132.28v30.1h-60.45v-30.1c0-33.22-11.8-61.63-35.41-85.24-23.44-23.61-51.85-35.41-85.24-35.41h-361.94v150.75h-60.2v-361.94h497.51c29.17,0,54.04,10.37,74.61,31.11,20.74,20.57,31.11,45.36,31.11,74.36,0,20.23-5.31,38.87-15.93,55.9-10.46,16.53-24.37,29.26-41.73,38.19ZM2004.32,4010.02c12.48,0,23.18-4.38,32.12-13.15,8.77-8.94,13.15-19.64,13.15-32.12s-4.39-22.93-13.15-31.87c-8.94-8.77-19.65-13.15-32.12-13.15h-437.32v90.3h437.32Z"/>
      <path class="cls-3" d="M2558.24,3859.28l318.44,361.94h-80.43l-53.12-60.2h-423.66l-53.12,60.2h-80.43l318.44-361.94h53.87ZM2372.33,4100.57h317.93l-159.09-180.59-158.84,180.59Z"/>
    </g>
    <g>
      <path class="cls-5" d="M3558.11,3859.28l-292.39,361.94h-76.13l-83.21-114.58-83.47,114.58h-75.88l-292.39-361.94h77.65l252.17,312.37,95.61-131.27h52.61l95.61,131.27,252.17-312.37h77.65Z"/>
      <path class="cls-5" d="M4237.22,3859.28v60.45h-603.24v-60.45h603.24ZM4237.22,4010.02v60.45h-543.04v90.55h543.04v60.2h-603.24v-211.2h603.24Z"/>
      <path class="cls-5" d="M4313.1,4221.22v-361.94h497.51c29.17,0,54.04,10.37,74.61,31.11,20.74,20.57,31.11,45.36,31.11,74.36s-10.62,54.89-31.87,75.63c21.25,20.57,31.87,45.7,31.87,75.37s-10.37,53.87-31.11,74.61-45.44,30.86-74.61,30.86h-497.51ZM4373.3,4010.02h437.32c12.48,0,23.18-4.38,32.12-13.15,8.77-8.94,13.15-19.64,13.15-32.12s-4.39-22.93-13.15-31.87c-8.94-8.77-19.65-13.15-32.12-13.15h-437.32v90.3ZM4373.3,4161.02h437.32c12.48,0,23.18-4.47,32.12-13.41s13.15-19.39,13.15-31.87-4.39-23.18-13.15-32.12c-8.94-8.77-19.65-13.15-32.12-13.15h-437.32v90.55Z"/>
    </g>
    <g>
      <path class="cls-7" d="M4647.69,149.53c-12.33-29.16-29.98-55.34-52.46-77.82-22.48-22.48-48.66-40.13-77.82-52.47-30.2-12.77-62.26-19.25-95.31-19.25s-65.11,6.48-95.31,19.25c-29.16,12.33-55.34,29.98-77.82,52.47-22.48,22.48-40.13,48.66-52.46,77.82-12.77,30.2-19.25,62.26-19.25,95.31s6.48,65.11,19.25,95.31c12.33,29.16,29.98,55.34,52.46,77.82,22.48,22.48,48.66,40.13,77.82,52.47,30.2,12.77,62.26,19.25,95.31,19.25s65.11-6.48,95.31-19.25c29.16-12.33,55.34-29.98,77.82-52.47,22.48-22.48,40.13-48.66,52.46-77.82,12.77-30.2,19.25-62.26,19.25-95.31s-6.48-65.11-19.25-95.31ZM4642.43,244.84c0,121.69-98.65,220.34-220.34,220.34h0c-121.69,0-220.34-98.65-220.34-220.34h0c0-121.69,98.65-220.34,220.34-220.34h0c121.69,0,220.34,98.65,220.34,220.34h0Z"/>
      <path class="cls-7" d="M4389.01,282.32v106.61h-66.85V100.76h93.75c20.83,0,38.6,2.14,53.3,6.43,14.7,4.29,26.7,10.25,36,17.9,9.3,7.65,16.05,16.68,20.27,27.1,4.22,10.42,6.33,21.76,6.33,34.02,0,9.36-1.25,18.2-3.76,26.5-2.51,8.31-6.23,15.99-11.17,23.04-4.94,7.06-11.01,13.35-18.2,18.89-7.19,5.54-15.46,10.09-24.82,13.65,4.48,2.24,8.67,5.01,12.56,8.31,3.89,3.3,7.28,7.32,10.19,12.06l61.31,100.28h-60.52c-11.21,0-19.25-4.22-24.13-12.66l-47.86-83.66c-2.11-3.69-4.58-6.33-7.42-7.91-2.84-1.58-6.82-2.37-11.97-2.37h-17.01ZM4389.01,236.24h26.9c9.1,0,16.84-1.15,23.24-3.46,6.39-2.31,11.64-5.5,15.72-9.59,4.09-4.09,7.05-8.87,8.9-14.34,1.84-5.47,2.77-11.37,2.77-17.7,0-12.66-4.12-22.55-12.36-29.67-8.24-7.12-21-10.68-38.27-10.68h-26.9v85.44Z"/>
    </g>
  </g>
</svg>